<svg width="184" height="265" viewBox="0 0 184 265" fill="none" xmlns="http://www.w3.org/2000/svg">
<path d="M52.5707 0H26.2852V26.2856H52.5707V0Z" fill="#FFD700"/>
<path d="M78.8579 0H52.5723V26.2856H78.8579V0Z" fill="#FFD700"/>
<path d="M105.143 0H78.8574V26.2856H105.143V0Z" fill="#FFD700"/>
<path d="M131.428 0H105.143V26.2856H131.428V0Z" fill="#FFD700"/>
<path d="M157.711 0H131.426V26.2856H157.711V0Z" fill="#FFD700"/>
<path d="M26.2856 26.2854H0V52.571H26.2856V26.2854Z" fill="#FFD700"/>
<path d="M52.5707 26.2854H26.2852V52.571H52.5707V26.2854Z" fill="#FFD700"/>
<path d="M78.8579 26.2854H52.5723V52.571H78.8579V26.2854Z" fill="#FFB6C1"/>
<path d="M105.143 26.2854H78.8574V52.571H105.143V26.2854Z" fill="#FFB6C1"/>
<path d="M131.428 26.2854H105.143V52.571H131.428V26.2854Z" fill="#FFB6C1"/>
<path d="M157.711 26.2854H131.426V52.571H157.711V26.2854Z" fill="#FFB6C1"/>
<path d="M184 26.2854H157.715V52.571H184V26.2854Z" fill="#FFD700"/>
<path d="M26.2856 52.5713H0V78.8569H26.2856V52.5713Z" fill="#FFD700"/>
<path d="M52.5707 52.5713H26.2852V78.8569H52.5707V52.5713Z" fill="#FFB6C1"/>
<path d="M78.8579 52.5713H52.5723V78.8569H78.8579V52.5713Z" fill="#FFB6C1"/>
<path d="M105.143 52.5713H78.8574V78.8569H105.143V52.5713Z" fill="#FFB6C1"/>
<path d="M131.428 52.5713H105.143V78.8569H131.428V52.5713Z" fill="#FFB6C1"/>
<path d="M157.711 52.5713H131.426V78.8569H157.711V52.5713Z" fill="#FFB6C1"/>
<path d="M184 52.5713H157.715V78.8569H184V52.5713Z" fill="#FFD700"/>
<path d="M52.5707 78.8569H26.2852V105.143H52.5707V78.8569Z" fill="#FFB6C1"/>
<path d="M78.8579 78.8569H52.5723V105.143H78.8579V78.8569Z" fill="black"/>
<path d="M105.143 78.8569H78.8574V105.143H105.143V78.8569Z" fill="#FFB6C1"/>
<path d="M131.428 78.8569H105.143V105.143H131.428V78.8569Z" fill="black"/>
<path d="M157.711 78.8569H131.426V105.143H157.711V78.8569Z" fill="#FFB6C1"/>
<path d="M52.5707 105.142H26.2852V131.428H52.5707V105.142Z" fill="#FFB6C1"/>
<path d="M78.8579 105.142H52.5723V131.428H78.8579V105.142Z" fill="#FFB6C1"/>
<path d="M105.143 105.142H78.8574V131.428H105.143V105.142Z" fill="#FFB6C1"/>
<path d="M131.428 105.142H105.143V131.428H131.428V105.142Z" fill="#FFB6C1"/>
<path d="M157.711 105.142H131.426V131.428H157.711V105.142Z" fill="#FFB6C1"/>
<path d="M52.5707 131.428H26.2852V157.713H52.5707V131.428Z" fill="#FFB6C1"/>
<path d="M78.8579 131.428H52.5723V157.713H78.8579V131.428Z" fill="#FF69B4"/>
<path d="M105.143 131.428H78.8574V157.713H105.143V131.428Z" fill="#FF69B4"/>
<path d="M131.428 131.428H105.143V157.713H131.428V131.428Z" fill="#FF69B4"/>
<path d="M157.711 131.428H131.426V157.713H157.711V131.428Z" fill="#FFB6C1"/>
<path d="M52.5707 157.714H26.2852V183.999H52.5707V157.714Z" fill="#4169E1"/>
<path d="M78.8579 157.714H52.5723V183.999H78.8579V157.714Z" fill="#4169E1"/>
<path d="M105.143 157.714H78.8574V183.999H105.143V157.714Z" fill="#4169E1"/>
<path d="M131.428 157.714H105.143V183.999H131.428V157.714Z" fill="#4169E1"/>
<path d="M157.711 157.714H131.426V183.999H157.711V157.714Z" fill="#4169E1"/>
<path d="M27.0588 256.558V236.264H43.294V240.322H47.3528V244.381H43.294V248.44H35.1764V256.558H27.0588ZM35.1764 244.381H39.0729V240.322H35.1764V244.381ZM55.4704 256.558V240.322H59.5292V236.264H71.7056V240.322H75.7645V256.558H67.6468V248.44H63.588V256.558H55.4704ZM63.588 244.381H67.6468V240.485H63.588V244.381ZM87.9409 256.558V252.499H83.8821V236.264H91.9997V252.499H96.0585V236.264H104.176V252.499H100.117V256.558H87.9409ZM112.294 256.558V236.264H120.411V252.499H128.529V256.558H112.294ZM136.647 256.558V240.322H140.705V236.264H152.882V240.322H156.941V256.558H148.823V248.44H144.764V256.558H136.647ZM144.764 244.381H148.823V240.485H144.764V244.381Z" fill="white"/>
<rect x="51.5195" y="77.2795" width="27.5999" height="29.4399" fill="#FFB6C1"/>
<rect x="104.879" y="77.2795" width="27.5999" height="29.4399" fill="#FFB6C1"/>
<rect x="75.8281" y="93.3835" width="3.79563" height="22.7738" transform="rotate(135 75.8281 93.3835)" fill="black"/>
<rect x="59.7246" y="96.0671" width="3.79563" height="22.7738" transform="rotate(-135 59.7246 96.0671)" fill="black"/>
<rect x="125.896" y="93.3835" width="3.79563" height="22.7738" transform="rotate(135 125.896 93.3835)" fill="black"/>
<rect x="109.793" y="96.0671" width="3.79563" height="22.7738" transform="rotate(-135 109.793 96.0671)" fill="black"/>
</svg>
